<svg xmlns="http://www.w3.org/2000/svg" width="27.801" height="44.477" viewBox="0 0 27.801 44.477">
  <g id="flame-svgrepo-com" transform="translate(-484.73 470.001)">
    <path id="Path_169" data-name="Path 169" d="M122.091,44.417a.479.479,0,0,0,.627-.683,11,11,0,0,1-.633-10.9c3.632-8.12,5.843-12.326,5.843-12.326a29.237,29.237,0,0,0,4.363,9.272c3.067,4.2,4.746,9.482,2.04,13.883a.48.48,0,0,0,.626.679c3.35-1.714,7.108-5.152,7.532-11.992a23.4,23.4,0,0,0-1.25-8.71c-1.507-4.681-3.36-6.865-4.433-7.8a.48.48,0,0,0-.793.393c.312,5.05-1.588,6.332-2.669,3.444a17.675,17.675,0,0,1-.684-5.579A19.077,19.077,0,0,0,128.9,2.5,13.13,13.13,0,0,0,126.534.1a.48.48,0,0,0-.771.414c.2,2.742.019,10.6-6.877,19.992-6.252,8.71-3.829,15.4-2.97,17.211A14.18,14.18,0,0,0,122.091,44.417Z" transform="translate(370 -470)" fill="#e25822"/>
  </g>
</svg>
