<svg id="iconfinder_2018_social_media_popular_app_logo_instagram_3225191" xmlns="http://www.w3.org/2000/svg" xmlns:xlink="http://www.w3.org/1999/xlink" width="38" height="38" viewBox="0 0 38 38">
  <defs>
    <linearGradient id="linear-gradient" x1="0.146" y1="0.854" x2="0.854" y2="0.146" gradientUnits="objectBoundingBox">
      <stop offset="0" stop-color="#ffd521"/>
      <stop offset="0.055" stop-color="#ffd020"/>
      <stop offset="0.124" stop-color="#fec01e"/>
      <stop offset="0.2" stop-color="#fca71b"/>
      <stop offset="0.282" stop-color="#fa8316"/>
      <stop offset="0.368" stop-color="#f85510"/>
      <stop offset="0.456" stop-color="#f51e09"/>
      <stop offset="0.5" stop-color="#f30005"/>
      <stop offset="0.503" stop-color="#f20007"/>
      <stop offset="0.597" stop-color="#e1003b"/>
      <stop offset="0.688" stop-color="#d30067"/>
      <stop offset="0.776" stop-color="#c70088"/>
      <stop offset="0.859" stop-color="#bf00a0"/>
      <stop offset="0.936" stop-color="#bb00af"/>
      <stop offset="1" stop-color="#b900b4"/>
    </linearGradient>
  </defs>
  <path id="Path_523" data-name="Path 523" d="M19,38h0A19,19,0,0,1,0,19H0A19,19,0,0,1,19,0h0A19,19,0,0,1,38,19h0A19,19,0,0,1,19,38Z" fill="url(#linear-gradient)"/>
  <g id="Group_79" data-name="Group 79" transform="translate(6.027 6.031)">
    <path id="Path_524" data-name="Path 524" d="M171.573,161.037c3.462,0,3.872.011,5.24.076a7.116,7.116,0,0,1,2.409.448,4.289,4.289,0,0,1,2.459,2.459,7.214,7.214,0,0,1,.448,2.409c.061,1.368.076,1.778.076,5.24s-.011,3.872-.076,5.24a7.116,7.116,0,0,1-.448,2.409,4.289,4.289,0,0,1-2.459,2.459,7.214,7.214,0,0,1-2.409.448c-1.368.061-1.778.076-5.24.076s-3.872-.011-5.24-.076a7.116,7.116,0,0,1-2.409-.448,4.289,4.289,0,0,1-2.459-2.459,7.214,7.214,0,0,1-.448-2.409c-.061-1.368-.076-1.778-.076-5.24s.011-3.872.076-5.24a7.116,7.116,0,0,1,.448-2.409,4.289,4.289,0,0,1,2.459-2.459,7.215,7.215,0,0,1,2.409-.448c1.368-.065,1.778-.076,5.24-.076m0-2.337c-3.523,0-3.963.015-5.347.08a9.533,9.533,0,0,0-3.15.6,6.261,6.261,0,0,0-2.3,1.493,6.384,6.384,0,0,0-1.5,2.3,9.59,9.59,0,0,0-.6,3.15c-.065,1.383-.08,1.824-.08,5.347s.015,3.963.08,5.347a9.534,9.534,0,0,0,.6,3.15,6.654,6.654,0,0,0,3.8,3.789,9.59,9.59,0,0,0,3.15.6c1.383.065,1.824.08,5.347.08s3.963-.015,5.347-.08a9.534,9.534,0,0,0,3.15-.6,6.654,6.654,0,0,0,3.789-3.8,9.589,9.589,0,0,0,.6-3.15c.065-1.383.08-1.824.08-5.347s-.015-3.963-.08-5.347a9.533,9.533,0,0,0-.6-3.15,6.654,6.654,0,0,0-3.8-3.789,9.59,9.59,0,0,0-3.15-.6c-1.379-.061-1.82-.076-5.343-.076Z" transform="translate(-158.6 -158.7)" fill="#fff"/>
    <path id="Path_525" data-name="Path 525" d="M331.361,324.7a6.661,6.661,0,1,0,6.661,6.661A6.662,6.662,0,0,0,331.361,324.7Zm0,10.986a4.324,4.324,0,1,1,4.324-4.324A4.324,4.324,0,0,1,331.361,335.686Z" transform="translate(-318.388 -318.392)" fill="#fff"/>
    <circle id="Ellipse_277" data-name="Ellipse 277" cx="1.558" cy="1.558" r="1.558" transform="translate(18.339 4.488)" fill="#fff"/>
  </g>
</svg>
