<svg id="linkedin-share-button" xmlns="http://www.w3.org/2000/svg" width="122.88" height="38.49" viewBox="0 0 122.88 38.49">
  <path id="Path_489" data-name="Path 489" d="M118.69,0H4.19A4.208,4.208,0,0,0,0,4.19V34.3a4.208,4.208,0,0,0,4.19,4.19h114.5a4.208,4.208,0,0,0,4.19-4.19V4.19A4.208,4.208,0,0,0,118.69,0Z" fill="#0077b5" fill-rule="evenodd"/>
  <path id="Path_490" data-name="Path 490" d="M51.99,21.34l3.13-.23a2.979,2.979,0,0,0,.42,1.34A1.652,1.652,0,0,0,57,23.2a1.5,1.5,0,0,0,1.09-.38,1.22,1.22,0,0,0,.02-1.75,3.94,3.94,0,0,0-1.68-.72,6.68,6.68,0,0,1-3.09-1.5,3.241,3.241,0,0,1-.93-2.39,3.624,3.624,0,0,1,.48-1.8,3.321,3.321,0,0,1,1.43-1.34,5.92,5.92,0,0,1,2.62-.48,4.756,4.756,0,0,1,3.12.89,4.026,4.026,0,0,1,1.28,2.81l-3.1.21a2.13,2.13,0,0,0-.52-1.23,1.5,1.5,0,0,0-1.1-.38,1.261,1.261,0,0,0-.87.28.893.893,0,0,0-.29.69.725.725,0,0,0,.24.53,2.578,2.578,0,0,0,1.1.46,12.275,12.275,0,0,1,3.09,1.1,3.437,3.437,0,0,1,1.36,1.37,3.945,3.945,0,0,1,.42,1.83,4.4,4.4,0,0,1-.57,2.2,3.783,3.783,0,0,1-1.59,1.53,5.572,5.572,0,0,1-2.57.52c-1.81,0-3.07-.41-3.77-1.22a5.208,5.208,0,0,1-1.18-3.09ZM10.93,15.72h4.23V28.41H10.93V15.72Zm7.05,0h3.9v2h.06a4.327,4.327,0,0,1,3.85-2c4.12,0,4.88,2.56,4.88,5.9v6.79H26.6V22.39c0-1.44-.03-3.28-2.12-3.28-2.12,0-2.44,1.56-2.44,3.18v6.13H17.98V15.72Zm-2.82-3.53a2.12,2.12,0,1,1-2.12-2.11,2.113,2.113,0,0,1,2.12,2.11Zm47.97.86h3.29v4.33h3.61V13.05h3.31V25.44H70.03V20.42H66.42v5.02H63.13V13.05ZM82.1,23.39H78.36l-.54,2.04H74.45l4.02-12.39h3.61l4,12.39H82.63l-.53-2.04Zm-.69-2.68-1.17-4.45-1.17,4.45Zm5.77,4.73V13.05h5.5a6.66,6.66,0,0,1,2.33.31,2.5,2.5,0,0,1,1.3,1.13,3.841,3.841,0,0,1,.5,2.01,3.928,3.928,0,0,1-.38,1.78,3.248,3.248,0,0,1-1.04,1.22,3.608,3.608,0,0,1-1.16.49,2.9,2.9,0,0,1,.86.46,3.722,3.722,0,0,1,.53.65,5.03,5.03,0,0,1,.46.77l1.6,3.58H93.95l-1.76-3.78a2.8,2.8,0,0,0-.6-.95,1.276,1.276,0,0,0-.81-.29h-.29v5.02H87.18Zm3.31-7.36h1.39a4.733,4.733,0,0,0,.88-.17.826.826,0,0,0,.53-.39,1.268,1.268,0,0,0,.21-.72,1.218,1.218,0,0,0-.33-.92,1.8,1.8,0,0,0-1.23-.32H90.49v2.52Zm8.25-5.03h8.83V15.7h-5.52v1.97h5.11V20.2h-5.11v2.44h5.68v2.8H98.74V13.05Z" fill="#fff"/>
  <path id="Path_491" data-name="Path 491" d="M40.66,0V38.48H38.27V0Z" fill="#006ba3"/>
</svg>
