<svg xmlns="http://www.w3.org/2000/svg" width="460.965" height="128.465" viewBox="0 0 460.965 128.465">
  <g id="Group_39" data-name="Group 39" transform="translate(-5677.035 1616)">
    <path id="Path_606" data-name="Path 606" d="M71.6,82.328a53.535,53.535,0,0,1,86.139.232,15.418,15.418,0,0,0-1.134,1.31,30.458,30.458,0,0,0-4.2,8.311c-2.167,6.08-3.819,14.022-5.349,21.46l-.136.669c-1.527,7.423-2.946,14.327-4.661,19.453a24.634,24.634,0,0,1-2.15,4.973,24.652,24.652,0,0,1-2.256-5.034c-1.835-5.272-3.378-12.443-5.014-20.1l-.053-.251h0c-1.572-7.355-3.24-15.159-5.319-21.132a31.952,31.952,0,0,0-4-8.238c-1.645-2.247-4.384-4.783-8.39-4.783-3.98,0-6.732,2.509-8.4,4.731a32.418,32.418,0,0,0-4.139,8.212c-2.21,6.045-4.017,13.953-5.7,21.4l-.174.769h0c-1.665,7.377-3.222,14.275-4.989,19.41a30.953,30.953,0,0,1-1.887,4.519,30.985,30.985,0,0,1-1.84-4.487c-1.7-5.026-3.18-11.73-4.775-18.93l-.279-1.26c-1.653-7.452-3.446-15.374-5.687-21.439a31.653,31.653,0,0,0-4.239-8.249A15.236,15.236,0,0,0,71.6,82.328ZM65.7,92.4a32.985,32.985,0,0,1,1.464,3.43c1.94,5.249,3.584,12.412,5.277,20.045l.329,1.487c1.541,6.965,3.144,14.21,5.033,19.807a33.667,33.667,0,0,0,3.777,8.159c1.475,2.143,4.122,4.911,8.191,4.911s6.71-2.755,8.2-4.888A33.845,33.845,0,0,0,101.8,137.2a207.407,207.407,0,0,0,5.237-20.219h0l.245-1.085c1.725-7.638,3.385-14.815,5.311-20.083a24.209,24.209,0,0,1,2.455-5.2,24.127,24.127,0,0,1,2.312,5.118c1.835,5.272,3.377,12.444,5.014,20.1l.054.251h0c1.572,7.355,3.239,15.159,5.319,21.131a31.925,31.925,0,0,0,4,8.238c1.646,2.248,4.384,4.784,8.389,4.784,4.026,0,6.755-2.559,8.381-4.827a31.582,31.582,0,0,0,3.9-8.255c1.928-5.756,3.461-13.226,4.921-20.331h0l.211-1.032c1.573-7.648,3.083-14.791,4.948-20.024.4-1.138.8-2.109,1.182-2.925A53.527,53.527,0,1,1,65.7,92.4ZM114.587,50a64.233,64.233,0,1,0,64.232,64.233A64.233,64.233,0,0,0,114.587,50ZM115.8,89.73l.008-.007a.148.148,0,0,0-.037.026Zm-1.472,0a.165.165,0,0,1-.037-.027A.153.153,0,0,1,114.331,89.731Zm24.988,50.021a.227.227,0,0,1,.035-.027C139.331,139.745,139.32,139.753,139.32,139.752Zm1.557-.043a.174.174,0,0,1,.038.027A.149.149,0,0,1,140.876,139.708Zm-52.2.139a.214.214,0,0,1,.046-.038A.242.242,0,0,1,88.673,139.848Zm2.168-.028a.22.22,0,0,1,.046.038S90.871,139.849,90.841,139.82Z" transform="translate(5626.681 -1666)" fill="#8c30f5" fill-rule="evenodd"/>
    <text id="WisePlay" transform="translate(5825 -1525)" font-size="72" font-family="HelveticaNeue-Bold, Helvetica Neue" font-weight="700"><tspan x="0" y="0">WisePlay</tspan></text>
  </g>
</svg>
