<svg xmlns="http://www.w3.org/2000/svg" width="204" height="44.326" viewBox="0 0 204 44.326">
  <g id="Group_104" data-name="Group 104" transform="translate(-277 -4028.918)">
    <text id="WisePlay" transform="translate(340 4060.082)" fill="#fff" font-size="32" font-family="Helvetica-Bold, Helvetica" font-weight="700"><tspan x="0" y="0">WisePlay</tspan></text>
    <g id="Group_80" data-name="Group 80" transform="translate(84 4010.918)">
      <path id="Union_3" data-name="Union 3" d="M7.82,28.49l.192.071C3.137,25.642,0,21.081,0,15.955,0,7.143,9.269,0,20.7,0s20.7,7.143,20.7,15.955S32.137,31.909,20.7,31.909a26.679,26.679,0,0,1-4.773-.426l.3.111L7.82,39.539Z" transform="translate(193 18)" fill="#ffc532"/>
      <path id="Subtraction_1" data-name="Subtraction 1" d="M-.475,39.312V28.4c.233.009.477.014.727.014a19.02,19.02,0,0,0,7.319-1.448,18.767,18.767,0,0,0,5.977-3.948,18.346,18.346,0,0,0,4.03-5.856,17.99,17.99,0,0,0,1.478-7.171A18.088,18.088,0,0,0,16.066.021,22.707,22.707,0,0,1,28.222,5.43a15.617,15.617,0,0,1,3.588,4.719,12.64,12.64,0,0,1-.326,11.789,16.4,16.4,0,0,1-4.437,5.071,24.015,24.015,0,0,1-14.64,4.673,26.783,26.783,0,0,1-4.772-.426l.3.112L-.474,39.31Z" transform="translate(217.828 23.014)" fill="#ffc532"/>
    </g>
  </g>
</svg>
