<svg id="share_black_24dp_2_" data-name="share_black_24dp (2)" xmlns="http://www.w3.org/2000/svg" width="30.773" height="30.773" viewBox="0 0 30.773 30.773">
  <path id="Path_481" data-name="Path 481" d="M0,0H30.773V30.773H0Z" fill="none"/>
  <path id="Path_482" data-name="Path 482" d="M22.233,20.054a3.734,3.734,0,0,0-2.513.987L10.578,15.72a4.2,4.2,0,0,0,.115-.9,4.2,4.2,0,0,0-.115-.9l9.04-5.27a3.838,3.838,0,1,0-1.231-2.808,4.2,4.2,0,0,0,.115.9l-9.04,5.27a3.847,3.847,0,1,0,0,5.616l9.129,5.334a3.617,3.617,0,0,0-.1.833,3.744,3.744,0,1,0,3.744-3.744Z" transform="translate(0.847 0.564)" fill="#fff"/>
</svg>
