<svg xmlns="http://www.w3.org/2000/svg" width="90.312" height="63.889" viewBox="0 0 90.312 63.889">
  <g id="Group_7" data-name="Group 7" transform="translate(249.135 -435.704)">
    <ellipse id="Ellipse_18" data-name="Ellipse 18" cx="0.776" cy="1.115" rx="0.776" ry="1.115" transform="matrix(0.144, -0.99, 0.99, 0.144, -228.383, 472.159)" fill="#fff"/>
    <path id="Path_28" data-name="Path 28" d="M702.588,291.241A26.229,26.229,0,1,1,700.927,282c.057.154.113.308.167.464h0q.363,1.025.64,2.089A26.414,26.414,0,0,1,702.588,291.241Z" transform="translate(-876.213 176.498)" fill="#3f3d56"/>
    <path id="Path_29" data-name="Path 29" d="M715.838,298.045a8.86,8.86,0,0,0-7.778-.318,4.2,4.2,0,0,0-2.6,2.855c1.467-.866,3.367.5,3.744,2.7l-.088.024a5.368,5.368,0,0,0,1.108,4.118,2.9,2.9,0,0,1,1.39-2.062,5.509,5.509,0,0,0,1.817-1.434,9.194,9.194,0,0,0,.946-3.219C714.609,299.576,715.041,298.36,715.838,298.045Z" transform="translate(-918.758 151.878)" fill="#6c63ff"/>
    <path id="Path_30" data-name="Path 30" d="M668.394,308.891a9.352,9.352,0,0,1-1.436,1.47,3.307,3.307,0,0,0-1.044,1.953c-.062.531.034,1.071.021,1.608s-.192,1.141-.557,1.275c-.577.208-1.017-.863-1.609-.937-.471-.059-.895.682-.758,1.325s.778.927,1.146.508c.333.559.1,1.573-.4,1.744-.053.352-.106.7-.157,1.055a17.353,17.353,0,0,1-3.618-3.079,9.346,9.346,0,0,1-2.13-5.035c-.139-1.489.067-3.192-.616-4.338a2.352,2.352,0,0,0-2.331-1.062c-.154.01-.31.028-.464.047a26.121,26.121,0,0,1,1.891-4.328,1.852,1.852,0,0,0,.474-.295c.786-.667,1.135-2.019,1.773-2.953q.062-.09.128-.176a6.081,6.081,0,0,1,2.372-1.7c1.87-.908,3.8-1.828,5.77-1.7l-.562.054q-.984,2.755-1.969,5.51-.15.422-.3.846a8.708,8.708,0,0,0-.7,3.326,2.029,2.029,0,0,0,.732,1.669c.427.22.893-.05,1.306-.317l.522-.336c.626-.4,1.32-.817,1.982-.547a2.338,2.338,0,0,1,1.138,1.957A3.913,3.913,0,0,1,668.394,308.891Z" transform="translate(-879.527 153.969)" fill="#6c63ff"/>
    <path id="Path_31" data-name="Path 31" d="M707.913,400.285l-5.488-3.379.031-.08c-1.137.433-1.61,2.455-1.422,4.109s.826,3.132,1.147,4.743a12.589,12.589,0,0,1-.475,6.606,54.1,54.1,0,0,0,6.355-8.757,4.685,4.685,0,0,0,.575-1.275,2.027,2.027,0,0,0-.134-1.442A1.605,1.605,0,0,0,707.913,400.285Z" transform="translate(-915.321 75.114)" fill="#6c63ff"/>
    <path id="Path_32" data-name="Path 32" d="M699.062,318.381a2.024,2.024,0,0,0-.093,1.471,1.631,1.631,0,0,0,.911.844l1.011.5a1.3,1.3,0,0,0,1.042.2,1.389,1.389,0,0,0,.626-1.415,2.519,2.519,0,0,0-.856-1.456l-1.567-1.575-.294.361A3.934,3.934,0,0,0,699.062,318.381Z" transform="translate(-913.691 136.525)" fill="#6c63ff"/>
    <path id="Path_33" data-name="Path 33" d="M776.749,314.989l1.364.321a4.162,4.162,0,0,1-1.862,3.472,3.475,3.475,0,0,0-1.251.694,3.8,3.8,0,0,0-.628,1.471l-.779,2.834c-.279,1.018-.637,2.149-1.361,2.516a1.506,1.506,0,0,1-1.812-.717,8.632,8.632,0,0,1-1.053-2.365,2.433,2.433,0,0,1-1.021,2.152,1.334,1.334,0,0,1-1.76-.687c-.293-.515-.415-1.194-.7-1.716s-.891-.821-1.2-.332a4.456,4.456,0,0,0-.283,1.238,1.345,1.345,0,0,1-1.124,1.081,1.874,1.874,0,0,1-1.345-.615,6.092,6.092,0,0,1-1.671-3.37,4.019,4.019,0,0,1,.047-1.843c.18-.571.616-1.011,1.049-.9.285-.6-.277-1.4-.783-1.329s-.905.615-1.322,1.033-1,.722-1.414.307a.574.574,0,0,1-.537.608h-.045a2.081,2.081,0,0,1-.758-.4,2.057,2.057,0,0,0-2.855.929c.425-1.81,1.049-3.888,2.356-4.313.534-.175,1.116-.031,1.621-.333.893-.535,1.074-2.558.3-3.393a3.254,3.254,0,0,1-.337,2.25.714.714,0,0,1-1.238-.61.535.535,0,0,1-.995.211,1.922,1.922,0,0,1-.057-1.618,3.813,3.813,0,0,1,.855-1.215,10.491,10.491,0,0,1,2.211-1.972,2.506,2.506,0,0,1,2.551-.161c.427.246.8.657,1.238.874a.918.918,0,0,0,1.263-.3h0l.014-.024a6.964,6.964,0,0,0,.292-2.126c.216-1.257,1.473-1.845,2.17-1.015-.521-.134-1.059.483-1.124,1.229a1.773,1.773,0,0,0,.816,1.727c.848.376,1.678-.569,2.319-1.444q1-1.373,2.01-2.745a3.311,3.311,0,0,1,.359-.437,1.156,1.156,0,0,1,1.58-.032c.678.553,1,1.687,1.552,2.467a4.53,4.53,0,0,0,3.138,1.63l2.514.491a26.062,26.062,0,0,1,1.459,3.223A8.834,8.834,0,0,0,776.749,314.989Z" transform="translate(-955.794 146.762)" fill="#6c63ff"/>
    <path id="Path_34" data-name="Path 34" d="M845.2,424.174a26.3,26.3,0,0,1-2.186,3.657c-.528-.226-1.1.177-1.59.556-.516.4-1.137.782-1.666.421a2.321,2.321,0,0,1-.544-2.224,5.925,5.925,0,0,1,1.015-2.089,4.1,4.1,0,0,1,1.523-1.595,1.187,1.187,0,0,1,1.58.977l.434-.015c-.244-.334-.116-1.027.211-1.149.377-.142.7.376.927.833C845.007,423.754,845.109,423.962,845.2,424.174Z" transform="translate(-1021.54 55.229)" fill="#6c63ff"/>
    <path id="Path_35" data-name="Path 35" d="M756.764,378.522c-.933.059-1.673-1.09-2.164-2.221s-.94-2.423-1.782-3a5.2,5.2,0,0,0-1.552-.533,1.922,1.922,0,0,1-1.318-1.16l-.592-.239a8.892,8.892,0,0,0-2.248,1.6,5.024,5.024,0,0,0-1.339,2.928,3.2,3.2,0,0,0,1.085,2.952c.617.352,1.334.13,1.959.452a3.7,3.7,0,0,1,1.419,2.725c.175,1.154.131,2.353.256,3.52a4.638,4.638,0,0,0,1.187,2.98c.9.748,2.21.127,2.611-1.236.2-.668.19-1.422.338-2.116a11.2,11.2,0,0,1,1.516-3.13A4.728,4.728,0,0,0,756.764,378.522Z" transform="translate(-949.731 94.685)" fill="#6c63ff"/>
    <path id="Path_36" data-name="Path 36" d="M753.026,343.631a2.5,2.5,0,0,1,.243.258.848.848,0,0,1-.015.875.814.814,0,0,0,.583-.3,3.744,3.744,0,0,0,.447-.63.687.687,0,0,0,.132-.549c-.044-.126-.148-.18-.221-.274a1.864,1.864,0,0,1-.2-.594,1.072,1.072,0,0,0-.777-.818l.047.009a.444.444,0,0,0-.208.473c.028.183.146.335.134.522-.017.268-.285.394-.3.663A.513.513,0,0,0,753.026,343.631Z" transform="translate(-955.216 117.571)" fill="#6c63ff"/>
    <path id="Path_37" data-name="Path 37" d="M746.577,330.359h0a.756.756,0,0,0,.08-.085Z" transform="translate(-950.366 126.281)" fill="#6c63ff"/>
    <path id="Path_38" data-name="Path 38" d="M742.886,331.87a.814.814,0,0,0,.253-.807c-.068-.305-.308-.51-.529-.454a.539.539,0,0,1-.5.148c-.137-.035-.287-.126-.406-.023a.616.616,0,0,0-.138.27l-.132.4a.254.254,0,0,0-.016.153.13.13,0,0,0,.1.079l.791.233A.681.681,0,0,0,742.886,331.87Z" transform="translate(-946.395 126.03)" fill="#6c63ff"/>
    <path id="Path_39" data-name="Path 39" d="M829.022,407.019l-.366-.6a2,2,0,0,0-.482-.6.427.427,0,0,0-.6.053h0l-.006.008.015.114a2.574,2.574,0,0,1,.642,1.253c.028.2.018.415.042.62a.723.723,0,0,0,.226.505c.192.128.417-.061.554-.291a1,1,0,0,0,.156-.639A1.12,1.12,0,0,0,829.022,407.019Z" transform="translate(-1012.632 68.279)" fill="#6c63ff"/>
    <path id="Path_40" data-name="Path 40" d="M838.825,404.847a1.38,1.38,0,0,0-.045-.557,1.223,1.223,0,0,1,.186-.693,2.254,2.254,0,0,0,.29-.636.532.532,0,0,0-.014-.311c-.04-.091-.138-.132-.194-.06l.12.077a1.093,1.093,0,0,0-.487.024.6.6,0,0,0-.369.416,2.569,2.569,0,0,1-.1.431c-.072.147-.21.2-.3.325a.777.777,0,0,0,.012.738.862.862,0,0,0,.487.383C838.565,405.037,838.758,405.04,838.825,404.847Z" transform="translate(-1020.524 70.71)" fill="#6c63ff"/>
    <path id="Path_41" data-name="Path 41" d="M852.938,412.991a1.674,1.674,0,0,0,.211.387c.163.164.384.063.582.023a1.006,1.006,0,0,1,.957.384,2.437,2.437,0,0,0-1.4-1.749,4.118,4.118,0,0,0-1.441-.225l-.084.021C851.975,412.453,852.645,412.44,852.938,412.991Z" transform="translate(-1031.234 63.594)" fill="#6c63ff"/>
    <path id="Path_42" data-name="Path 42" d="M794.492,422.264v0l.024-.047Z" transform="translate(-987.204 55.591)" fill="#6c63ff"/>
    <path id="Path_43" data-name="Path 43" d="M790.545,423.419a4.578,4.578,0,0,0-.29.636,5.538,5.538,0,0,0-.21,1.089c-.026.21-.034.478.1.58a.186.186,0,0,0,.244-.033.967.967,0,0,0,.177-.263,6.059,6.059,0,0,0,.6-1.417,2.466,2.466,0,0,0-.1-1.589Z" transform="translate(-983.773 55.435)" fill="#6c63ff"/>
    <path id="Path_44" data-name="Path 44" d="M769.767,304.469a.588.588,0,0,0,.634.124,2.1,2.1,0,0,0,.6-.394,1.4,1.4,0,0,0,.361-.394.8.8,0,0,0,.074-.609.619.619,0,0,0-.471-.373l-.878-.26.212-.191c-.218-.117-.459.1-.595.369a1.985,1.985,0,0,0-.181.556A1.427,1.427,0,0,0,769.767,304.469Z" transform="translate(-967.977 147.756)" fill="#6c63ff"/>
    <path id="Path_45" data-name="Path 45" d="M792.405,299.989a.483.483,0,0,0,.659.054.736.736,0,0,0,.291-.525c.021-.23-.093-.486-.256-.506l.037-.215c-.313-.057-.7-.068-.866.312a.892.892,0,0,0,.134.88Z" transform="translate(-985.45 150.503)" fill="#6c63ff"/>
    <ellipse id="Ellipse_21" data-name="Ellipse 21" cx="1.747" cy="1.215" rx="1.747" ry="1.215" transform="translate(-180.953 496.519) rotate(-14.913)" fill="#e6e6e6"/>
    <ellipse id="Ellipse_22" data-name="Ellipse 22" cx="1.747" cy="1.215" rx="1.747" ry="1.215" transform="translate(-192.372 496.73) rotate(-14.913)" fill="#e6e6e6"/>
    <ellipse id="Ellipse_23" data-name="Ellipse 23" cx="1.747" cy="1.215" rx="1.747" ry="1.215" transform="translate(-178.924 487.018) rotate(-14.913)" fill="#e6e6e6"/>
    <ellipse id="Ellipse_24" data-name="Ellipse 24" cx="0.768" cy="1.104" rx="0.768" ry="1.104" transform="translate(-174.277 482.782) rotate(-7.068)" fill="#e6e6e6"/>
    <ellipse id="Ellipse_25" data-name="Ellipse 25" cx="0.768" cy="1.104" rx="0.768" ry="1.104" transform="translate(-173.424 475.614) rotate(-7.068)" fill="#e6e6e6"/>
    <ellipse id="Ellipse_26" data-name="Ellipse 26" cx="0.768" cy="1.104" rx="0.768" ry="1.104" transform="translate(-184.936 489.393) rotate(-7.068)" fill="#e6e6e6"/>
    <ellipse id="Ellipse_27" data-name="Ellipse 27" cx="0.768" cy="1.104" rx="0.768" ry="1.104" transform="translate(-179.162 491.483) rotate(-7.068)" fill="#e6e6e6"/>
    <ellipse id="Ellipse_28" data-name="Ellipse 28" cx="0.768" cy="1.104" rx="0.768" ry="1.104" transform="translate(-186.172 497.402) rotate(-7.068)" fill="#e6e6e6"/>
    <ellipse id="Ellipse_29" data-name="Ellipse 29" cx="1.747" cy="1.215" rx="1.747" ry="1.215" transform="translate(-237.715 486.929) rotate(-14.913)" fill="#e6e6e6"/>
    <ellipse id="Ellipse_31" data-name="Ellipse 31" cx="1.747" cy="1.215" rx="1.747" ry="1.215" transform="translate(-235.687 477.428) rotate(-14.913)" fill="#e6e6e6"/>
    <ellipse id="Ellipse_32" data-name="Ellipse 32" cx="0.768" cy="1.104" rx="0.768" ry="1.104" transform="translate(-231.04 473.192) rotate(-7.068)" fill="#e6e6e6"/>
    <ellipse id="Ellipse_35" data-name="Ellipse 35" cx="0.768" cy="1.104" rx="0.768" ry="1.104" transform="translate(-235.925 481.893) rotate(-7.068)" fill="#e6e6e6"/>
    <ellipse id="Ellipse_36" data-name="Ellipse 36" cx="0.768" cy="1.104" rx="0.768" ry="1.104" transform="translate(-242.935 487.812) rotate(-7.068)" fill="#e6e6e6"/>
    <ellipse id="Ellipse_37" data-name="Ellipse 37" cx="1.747" cy="1.215" rx="1.747" ry="1.215" transform="translate(-168.336 443.019) rotate(-14.913)" fill="#e6e6e6"/>
    <ellipse id="Ellipse_38" data-name="Ellipse 38" cx="1.747" cy="1.215" rx="1.747" ry="1.215" transform="translate(-179.755 443.23) rotate(-14.913)" fill="#e6e6e6"/>
    <ellipse id="Ellipse_42" data-name="Ellipse 42" cx="0.768" cy="1.104" rx="0.768" ry="1.104" transform="translate(-172.318 435.893) rotate(-7.068)" fill="#e6e6e6"/>
    <ellipse id="Ellipse_43" data-name="Ellipse 43" cx="0.768" cy="1.104" rx="0.768" ry="1.104" transform="translate(-166.545 437.983) rotate(-7.068)" fill="#e6e6e6"/>
    <ellipse id="Ellipse_44" data-name="Ellipse 44" cx="0.768" cy="1.104" rx="0.768" ry="1.104" transform="translate(-173.555 443.902) rotate(-7.068)" fill="#e6e6e6"/>
    <path id="Path_46" data-name="Path 46" d="M581.961,306.235c-1.868,0-3.083-.464-3.621-1.387-1.06-1.82.715-5.013,5.277-9.491l.383.39c-4.238,4.16-6.08,7.294-5.188,8.826.565.969,2.245,1.316,4.859,1a49.254,49.254,0,0,0,10.224-2.745,197.209,197.209,0,0,0,30.464-14.782,197.21,197.21,0,0,0,27.886-19.208c1.337-1.146,2.551-2.249,3.607-3.277a35.916,35.916,0,0,0,3.825-4.263c1.561-2.12,2.088-3.753,1.524-4.722-.943-1.618-4.9-1.466-11.152.429l-.159-.524c6.7-2.033,10.669-2.094,11.783-.181.693,1.189.169,2.979-1.556,5.322a36.449,36.449,0,0,1-3.884,4.33c-1.064,1.036-2.286,2.147-3.632,3.3a197.743,197.743,0,0,1-27.967,19.265,197.756,197.756,0,0,1-30.553,14.824,49.76,49.76,0,0,1-10.345,2.774A15.073,15.073,0,0,1,581.961,306.235Z" transform="translate(-820.795 184.218)" fill="#3f3d56"/>
    <path id="Path_6" data-name="Path 6" d="M652.159,345.168a3.125,3.125,0,0,0,2.977,2.977,2.977,2.977,0,0,0,2.977-2.977,3.085,3.085,0,0,0-2.977-2.977A2.528,2.528,0,0,0,652.159,345.168Z" transform="translate(-890.748 104.962)" fill="#2f2e41"/>
    <path id="Path_7" data-name="Path 7" d="M397.1,653.51h1.134l.539-4.373H397.1Z" transform="translate(-631.336 -155.432)" fill="#ffb6b6"/>
    <path id="Path_8" data-name="Path 8" d="M690.08,782.8h3.486v-.044a1.357,1.357,0,0,0-1.357-1.357h0l-.637-.483-1.188.483h-.3Z" transform="translate(-924.353 -283.544)" fill="#2f2e41"/>
    <path id="Path_9" data-name="Path 9" d="M358.1,653.51h1.134l.539-4.373H358.1Z" transform="translate(-596.802 -155.432)" fill="#ffb6b6"/>
    <path id="Path_10" data-name="Path 10" d="M651.08,782.8h3.486v-.044a1.357,1.357,0,0,0-1.357-1.357h0l-.637-.483-1.188.483h-.3Z" transform="translate(-889.819 -283.544)" fill="#2f2e41"/>
    <path id="Path_11" data-name="Path 11" d="M652.968,540.926l.8,2.748-.944,11.639s.486.728.143.728-.784.161-.506.6-.671,1.995-.671,1.995l-1.342,8.287-1.71-.025s-.869-.484-.381-.974.831-.49.373-.948-.458-.32-.458-.675-.459-4.7.629-6.362l-.328-6.79-.772,6.66-1.59,8.884-1.647-.013s-.761-.733-.759-1.276.47-.588.121-.909-.349-5.252.682-7.993c0,0,.583-1.531,0-2.056a.769.769,0,0,1,0-1.125s.926-.335,0-1.3,0-7.781,0-7.781-1.013-2.752.013-3.834S652.968,540.926,652.968,540.926Z" transform="translate(-883.3 -70.237)" fill="#2f2e41"/>
    <path id="Path_12" data-name="Path 12" d="M595.394,562.48l1.43-3.456,1.127.626-.68,3.516a1.252,1.252,0,1,1-1.877-.685Z" transform="translate(-840.001 -87.056)" fill="#ffb6b6"/>
    <path id="Path_13" data-name="Path 13" d="M785.183,331.738l-2.176,3.042-.956-.865,1.459-3.27a1.252,1.252,0,1,1,1.672,1.093Z" transform="translate(-1005.793 116.356)" fill="#ffb6b6"/>
    <path id="Path_14" data-name="Path 14" d="M616.664,374.08c1.411,2.189-5.683,4.967-8.405,3.852-.477-.2-2.116-.84-1-1.735s-.13-1.02-.16-1.6c-.02-.389.282-1.243-.033-1.207s-.682-.5,0-.733.007-.443.013-.663c.066-2.4,1.907-6.216,1.907-6.216l-3.317,8.48s.025,1.467-.4,1.019-.392,1-.392,1-.629.439-.267.683-.39,1-.39,1l-1.753-.125s.027-1.3.327-1.59a.772.772,0,0,0,.152-.741s.779-.69.257-1.25c-.672-.72,1.777-12.885,2.623-12.765a3.22,3.22,0,0,1,2.3-2.456l1.893-.521.336-1.334h2.666l.464.876,2.026.915a2.5,2.5,0,0,1,2.23-1.29s4.212-3.832,4.006-4.131.447-1,.447-1,.557-.182.243-.28.28-.323.28-.323.551-.145.291-.335.867-.316.867-.316l1.462,1.193-.3.5s.18.682-.055.433-.279.474-.279.474a1.357,1.357,0,0,1-.832,1.03c-.712.238-1.252,2.5-1.252,2.5a16.622,16.622,0,0,1-6.009,5.008C617.538,363.483,616.664,374.08,616.664,374.08Z" transform="translate(-846.779 96.891)" fill="#1e0bb9"/>
    <circle id="Ellipse_1" data-name="Ellipse 1" cx="2.64" cy="2.64" r="2.64" transform="translate(-237.923 448.005)" fill="#ffb6b6"/>
    <path id="Path_15" data-name="Path 15" d="M656.518,344.825c.084.574.573,1.374.458,1.374s-.929-2.365-.115-2.519a4.272,4.272,0,0,0,1.274-.253l-.078.073a1.359,1.359,0,0,0,1.291-.071,1.368,1.368,0,0,1,1.292-.071,2.059,2.059,0,0,1,.471.7c.143.246.408.479.68.4a.539.539,0,0,0,.344-.533c0-.227-.3-.442-.2-.646.295-.6.03-1.014-.613-1.3l-.7-.109a1.985,1.985,0,0,1,.44-.442,1.006,1.006,0,0,0-.355-.455,1.115,1.115,0,0,0-.634-.092l-1.449.076a2.557,2.557,0,0,0-1.047.2,2.066,2.066,0,0,0-.85,1.011A4.178,4.178,0,0,0,656.518,344.825Z" transform="translate(-894.535 106.107)" fill="#2f2e41"/>
    <path id="Path_16" data-name="Path 16" d="M560.422,797.865l25.964.035a.136.136,0,0,0,0-.273l-25.964-.035a.136.136,0,1,0,0,.273Z" transform="translate(-809.42 -298.307)" fill="#cacaca"/>
  </g>
</svg>
