<svg xmlns="http://www.w3.org/2000/svg" width="312.606" height="208" viewBox="0 0 312.606 208">
  <g id="undraw_finish_line_katerina_limpitsouni_xy20_1_" data-name="undraw_finish_line_katerina_limpitsouni_xy20 (1)" transform="translate(0)">
    <path id="Path_446" data-name="Path 446" d="M271.329,150.254c-18.391-.654-35.906-6.59-52.621-13.071s-33.292-13.694-51.242-17.135c-11.545-2.214-24.75-2.526-34.051,3.663-8.954,5.967-11.847,16.24-13.4,25.782-1.171,7.178-1.858,14.731,1.347,21.451,2.228,4.666,6.178,8.587,8.911,13.057,9.511,15.549,2.788,34.724-7.516,49.907-4.831,7.124-10.443,13.924-14.174,21.5s-5.456,16.268-2.191,24c3.234,7.672,10.943,13.424,19.294,17.473,16.961,8.224,36.941,10.579,56.437,11.912,43.144,2.952,86.515,1.674,129.773.395,16.01-.475,32.087-.955,47.835-3.43,8.746-1.375,17.774-3.558,24.125-8.823,8.059-6.686,10.056-18.01,4.655-26.393-9.059-14.063-34.1-17.555-40.439-32.65-3.484-8.306.094-17.561,5.16-25.265C364.1,196.1,382.311,181.6,383.268,162.709c.659-12.975-8.1-25.969-21.633-32.11-14.188-6.436-33.866-5.626-44.329,5.027C306.514,146.583,287.569,150.8,271.329,150.254Z" transform="translate(-89.119 -108.768)" fill="#0058ff" opacity="0.1"/>
    <ellipse id="Ellipse_57" data-name="Ellipse 57" cx="20.803" cy="4.001" rx="20.803" ry="4.001" transform="translate(27.858 199.998)" fill="#0058ff"/>
    <ellipse id="Ellipse_58" data-name="Ellipse 58" cx="2.421" cy="3.171" rx="2.421" ry="3.171" transform="translate(45.891 199.129)" fill="#3f3d56"/>
    <ellipse id="Ellipse_59" data-name="Ellipse 59" cx="2.421" cy="3.171" rx="2.421" ry="3.171" transform="translate(45.891 195.253)" fill="#3f3d56"/>
    <ellipse id="Ellipse_60" data-name="Ellipse 60" cx="2.421" cy="3.171" rx="2.421" ry="3.171" transform="translate(45.891 191.377)" fill="#3f3d56"/>
    <ellipse id="Ellipse_61" data-name="Ellipse 61" cx="2.421" cy="3.171" rx="2.421" ry="3.171" transform="translate(45.891 187.504)" fill="#3f3d56"/>
    <ellipse id="Ellipse_62" data-name="Ellipse 62" cx="2.421" cy="3.171" rx="2.421" ry="3.171" transform="translate(45.891 183.628)" fill="#3f3d56"/>
    <ellipse id="Ellipse_63" data-name="Ellipse 63" cx="2.421" cy="3.171" rx="2.421" ry="3.171" transform="translate(45.891 179.752)" fill="#3f3d56"/>
    <ellipse id="Ellipse_64" data-name="Ellipse 64" cx="2.421" cy="3.171" rx="2.421" ry="3.171" transform="translate(45.891 175.876)" fill="#3f3d56"/>
    <path id="Path_447" data-name="Path 447" d="M199.7,573.518a11.481,11.481,0,0,0,.9-1.327l-6.365-1.046,6.882.051a11.614,11.614,0,0,0,.222-9.193l-9.232,4.791,8.525-6.252a11.6,11.6,0,1,0-19.164,12.983,11.7,11.7,0,0,0-1.324,2.117l8.263,4.291-8.809-2.955a11.6,11.6,0,0,0,1.87,10.895,11.6,11.6,0,1,0,18.237,0,11.6,11.6,0,0,0,0-14.347Z" transform="translate(-142.322 -420.991)" fill="#0058ff"/>
    <path id="Path_448" data-name="Path 448" d="M179,645.572a11.554,11.554,0,0,0,2.484,7.172,11.6,11.6,0,1,0,18.237,0C201.266,650.774,179,644.273,179,645.572Z" transform="translate(-142.33 -485.876)" opacity="0.1"/>
    <path id="Path_449" data-name="Path 449" d="M575.806,609.674a8.051,8.051,0,0,0,2.893,5.967c1.841,1.341,4.771,1.316,6.178-.486a6.909,6.909,0,0,0,1.026-2.231c1.185-3.745,2.026-7.843.727-11.551-2.93-.19-6.325-1.569-8.525.852A10.1,10.1,0,0,0,575.806,609.674Z" transform="translate(-426.356 -453.956)" fill="#3f3d56"/>
    <path id="Path_450" data-name="Path 450" d="M585.856,524.7a72.525,72.525,0,0,0-.983,9.923c.026,1.285.162,2.557.165,3.848a18.965,18.965,0,0,1-2.557,9.539,3.2,3.2,0,0,1-.7.9,2.245,2.245,0,0,1-2.444.082,4.809,4.809,0,0,1-1.736-1.884c-2.117-3.626-2.177-8.033-3.015-12.145-.642-3.146-1.768-6.195-2.174-9.377-.264-2.049-.225-4.137-.645-6.161-.128-.611-.486-1.529-.722-2.43a3.652,3.652,0,0,1-.114-2.137c.452-1.111,1.932-.679,2.9-.611a66.655,66.655,0,0,0,10.19-.026.876.876,0,0,1,1.179.611,13.788,13.788,0,0,1,.617,2.273A25.257,25.257,0,0,1,585.856,524.7Z" transform="translate(-422.806 -391.892)" fill="#fabdbd"/>
    <g id="Group_29" data-name="Group 29" transform="translate(148.013 122.218)" opacity="0.1">
      <path id="Path_451" data-name="Path 451" d="M605.535,514.475a2.506,2.506,0,0,0-.526,0c-1.625.131-3.254.2-4.879.2Q602.832,514.686,605.535,514.475Z" transform="translate(-591.805 -514.362)"/>
      <path id="Path_452" data-name="Path 452" d="M579.925,548.994a4.807,4.807,0,0,1-1.736-1.884c-2.117-3.626-2.177-8.033-3.015-12.145-.642-3.146-1.767-6.195-2.174-9.377-.264-2.049-.224-4.137-.645-6.161-.128-.611-.486-1.529-.722-2.43a3.652,3.652,0,0,1-.114-2.137,1.21,1.21,0,0,1,1.137-.739c-.719-.048-1.421.037-1.7.739a3.652,3.652,0,0,0,.114,2.137c.236.9.594,1.819.722,2.43.421,2.023.381,4.112.645,6.161.406,3.185,1.532,6.234,2.174,9.377.838,4.112.9,8.525,3.015,12.145a4.807,4.807,0,0,0,1.736,1.884,2.523,2.523,0,0,0,1.489.3,2.617,2.617,0,0,1-.921-.3Z" transform="translate(-570.833 -514.111)"/>
    </g>
    <path id="Path_453" data-name="Path 453" d="M634.014,528.03c-1.7,3.41-1.421,8.241-1.421,8.241.284,11.366-4.262,35.236-4.262,35.236h-3.978s-.568-26.427,0-28.7-.284-10.23-1.137-21.312a56.889,56.889,0,0,1,2.018-18.985c.318-1.137.54-1.759.54-1.759s6.536-9.661,10.23-5.115c.853,1.057,1.3,3.191,1.461,5.885C637.969,510.409,635.321,525.412,634.014,528.03Z" transform="translate(-460.22 -377.796)" fill="#fabdbd"/>
    <path id="Path_454" data-name="Path 454" d="M648.545,501.526c-.156-2.694-.6-4.831-1.461-5.885a2.927,2.927,0,0,0-2.79-1.185,3.029,3.029,0,0,1,1.938,1.185c.853,1.057,1.3,3.191,1.461,5.885.506,8.888-2.143,23.892-3.45,26.509-1.7,3.41-1.421,8.241-1.421,8.241.284,11.366-4.262,35.236-4.262,35.236h.852s4.547-23.869,4.262-35.236c0,0-.284-4.831,1.421-8.241C646.4,525.418,649.051,510.414,648.545,501.526Z" transform="translate(-471.302 -377.802)" opacity="0.1"/>
    <path id="Path_455" data-name="Path 455" d="M617.8,754.116a3.7,3.7,0,0,0-.813.887c-.509.96.213,2.108.986,2.873s1.7,1.583,1.7,2.671a2.663,2.663,0,0,1-1.4,2.091c-.4.25-.9.568-.815,1.04a.979.979,0,0,0,.151.332,4.4,4.4,0,0,0,2.907,1.762A13.114,13.114,0,0,0,624,765.8a.7.7,0,0,0,.477-.165.648.648,0,0,0,.128-.392,5.1,5.1,0,0,1,.284-1.782c.369-.742,1.219-1.12,1.7-1.784a3.967,3.967,0,0,0,.33-3.279,13.527,13.527,0,0,0-3.731-6.82C621,749.664,619.273,752.732,617.8,754.116Z" transform="translate(-455.741 -561.444)" fill="#3f3d56"/>
    <path id="Path_456" data-name="Path 456" d="M430.929,222.41c1.586-2.37,1.174-5.683-.446-8.042a13.741,13.741,0,0,0-6.908-4.8,19.445,19.445,0,0,0-11.332-.762c-2.961.77-5.621,2.381-8.411,3.626a36.17,36.17,0,0,1-15.708,3.126c-6-.168-12.571-1.7-17.6,1.574-9.212,5.993-5.115,22.3-13.83,28.984-2.35,1.8-5.308,2.589-7.922,3.978s-5.092,3.808-5.03,6.769a7.875,7.875,0,0,0,1.421,3.978,18.41,18.41,0,0,0,15.5,8.326,19.731,19.731,0,0,0,15.615-8.32,12.2,12.2,0,0,1,2.944-3.484c2.557-1.677,5.928-.5,8.979-.253a14.56,14.56,0,0,0,14.944-11.239c.568-2.856.469-6.269,2.768-8.062,1.856-1.446,4.467-1.137,6.82-1.384,4.3-.446,7.7-3.126,10.034-6.627,1.071-1.605,1.2-3.524,2.657-4.788C426.987,223.623,429.422,224.649,430.929,222.41Z" transform="translate(-260.255 -172.968)" fill="#3f3d56"/>
    <g id="Group_30" data-name="Group 30" transform="translate(99.108 35.306)" opacity="0.1">
      <path id="Path_457" data-name="Path 457" d="M457.863,233.122a36.024,36.024,0,0,0,7.436-.568c-.676.02-1.358.02-2.037,0-4.708-.131-9.769-1.1-14.163.068C452,232.651,455,233.043,457.863,233.122Z" transform="translate(-434.787 -225.289)"/>
      <path id="Path_458" data-name="Path 458" d="M412.89,380.766a12.2,12.2,0,0,0-2.944,3.484,19.962,19.962,0,0,1-11.216,7.732c.333.014.665.023,1,.02a19.723,19.723,0,0,0,15.615-8.32,12.2,12.2,0,0,1,2.944-3.484l.222-.136C416.5,379.786,414.535,379.689,412.89,380.766Z" transform="translate(-398.73 -331.11)"/>
      <path id="Path_459" data-name="Path 459" d="M594.011,214.338a13.8,13.8,0,0,0-6.908-4.8,19.445,19.445,0,0,0-11.332-.762c-.085.02-.168.045-.25.068a21.753,21.753,0,0,1,6.183,1.262,13.8,13.8,0,0,1,6.908,4.8c1.617,2.347,2.032,5.683.446,8.042-1.506,2.248-3.941,1.222-5.535,2.606-1.461,1.265-1.586,3.183-2.657,4.788a14.612,14.612,0,0,1-8.286,6.308c1.2-.142,2.458-.125,3.651-.25,4.3-.446,7.7-3.126,10.034-6.627,1.071-1.605,1.2-3.524,2.657-4.788,1.594-1.384,4.029-.358,5.535-2.606C596.046,220.01,595.634,216.685,594.011,214.338Z" transform="translate(-523.179 -208.252)"/>
      <path id="Path_460" data-name="Path 460" d="M517.448,309.224c-2.339.244-4.95-.062-6.82,1.384-2.3,1.793-2.188,5.206-2.768,8.062A14.589,14.589,0,0,1,498,329.311l.338.031A14.56,14.56,0,0,0,513.282,318.1c.568-2.856.469-6.269,2.768-8.062a5.131,5.131,0,0,1,1.765-.852C517.687,309.193,517.57,309.213,517.448,309.224Z" transform="translate(-469.791 -280.508)"/>
    </g>
    <path id="Path_461" data-name="Path 461" d="M546.023,169.18s-6.82,13.64-9.093,18.755-23.017,12.787-25.858,13.071a3.66,3.66,0,0,0-2.029.978,11.176,11.176,0,0,0-2.518,3.853s1.137,7.672-.284,20.459c-.028.247-.054.494-.077.733-1.239,12.168,1.355,15.038,1.355,15.038s-27.563,10.514-26.711-3.126a61.813,61.813,0,0,0-.037-10.054,42.218,42.218,0,0,0-1.631-7.917c-.673-2.356-1.478-4.939-2.31-8.457a37.088,37.088,0,0,0-1.58-5.158c-.02-.051-.04-.1-.057-.151-1.421-3.526-2.842-4.666-3.654-5.035a12.283,12.283,0,0,1-2.182-1.228,114.782,114.782,0,0,1-13.279-11.162c-6.82-6.82-13.64-23.017-13.64-23.017s-1.989-9.377,2.557-17.05,2.557,15.06,2.557,15.06,8.241,11.082,10.23,16.2a8.546,8.546,0,0,0,3.978,4.677,47.177,47.177,0,0,1,6.291,3.933,36.737,36.737,0,0,0,4.231,2.762c3.177,1.7,6.982,3.629,10.153,4.135a9.575,9.575,0,0,0,1.5.128,1.551,1.551,0,0,0,1.25-.568c.852-1,.833-3.163.637-4.939a25.115,25.115,0,0,0-.466-2.736s9.235-5.825,8.951,1.279a7.943,7.943,0,0,0,.216,2.336,4.049,4.049,0,0,0,2.754,3.012,6.82,6.82,0,0,0,3.41.111,3.333,3.333,0,0,0,1.006-.344,68.773,68.773,0,0,1,11.935-3.41c2.557-.284,15.345-6.536,15.345-6.536l13.924-19.323s-.284-11.366,5.4-15.913S546.023,169.18,546.023,169.18Z" transform="translate(-330.6 -129.911)" fill="#fabdbd"/>
    <g id="Group_31" data-name="Group 31" transform="translate(111.401 20.313)" opacity="0.1">
      <path id="Path_462" data-name="Path 462" d="M666.954,389.02a56.677,56.677,0,0,0-.327,6.877c.028-1.5.128-3.214.327-5.172.023-.239.048-.486.077-.733a111.435,111.435,0,0,0,.71-13.182,114.173,114.173,0,0,1-.71,11.477C667.014,388.534,666.977,388.782,666.954,389.02Z" transform="translate(-602.791 -313.92)"/>
      <path id="Path_463" data-name="Path 463" d="M594.884,289.07c-.19.111-.284.179-.284.179a24.338,24.338,0,0,1,.546,3.694A17.429,17.429,0,0,0,594.884,289.07Z" transform="translate(-551.234 -251.112)"/>
      <path id="Path_464" data-name="Path 464" d="M461.7,179.287c.139-1.989.347-5.555.307-8.727-.048,4.24-.426,8.565-.426,8.565Z" transform="translate(-456.013 -166.278)"/>
      <path id="Path_465" data-name="Path 465" d="M578.531,466.53a1.865,1.865,0,0,1-.02.332c-.852,13.64,26.711,3.126,26.711,3.126a4.625,4.625,0,0,1-.719-1.443C600.352,470.022,579.489,476.893,578.531,466.53Z" transform="translate(-539.703 -378.145)"/>
      <path id="Path_466" data-name="Path 466" d="M708.558,172.741s-6.82,13.64-9.093,18.755-23.017,12.787-25.859,13.071a3.66,3.66,0,0,0-2.029.978,11.176,11.176,0,0,0-2.518,3.853s.068.463.151,1.344a10.566,10.566,0,0,1,2.367-3.492,3.66,3.66,0,0,1,2.029-.978c2.842-.284,23.585-7.956,25.858-13.071s9.093-18.755,9.093-18.755,4.805-14.592,4.277-18.956C712.4,161.082,708.558,172.741,708.558,172.741Z" transform="translate(-604.536 -155.49)"/>
      <path id="Path_467" data-name="Path 467" d="M480.76,259.386a42.213,42.213,0,0,0-1.631-7.917c-.673-2.356-1.478-4.939-2.31-8.457a37.087,37.087,0,0,0-1.58-5.158c-.02-.051-.04-.1-.057-.151-1.421-3.526-2.842-4.666-3.654-5.035a12.282,12.282,0,0,1-2.182-1.228,114.785,114.785,0,0,1-13.279-11.162c-6.82-6.82-13.64-23.017-13.64-23.017a25.7,25.7,0,0,1-.421-4.143,27.387,27.387,0,0,0,.421,5.848s6.82,16.2,13.64,23.017a114.784,114.784,0,0,0,13.279,11.162,12.284,12.284,0,0,0,2.2,1.228c.81.369,2.228,1.509,3.654,5.035.017.048.037.1.057.151a37.088,37.088,0,0,1,1.571,5.158c.833,3.518,1.637,6.1,2.31,8.457a42.217,42.217,0,0,1,1.631,7.917c.119,1.188.19,2.481.21,3.936A49.5,49.5,0,0,0,480.76,259.386Z" transform="translate(-441.989 -182.427)"/>
    </g>
    <path id="Path_468" data-name="Path 468" d="M592.378,332.936a16.924,16.924,0,0,0-1.137,2.239,13.527,13.527,0,0,0-.511,3.757,30.163,30.163,0,0,1-.807,5.263,5.825,5.825,0,0,1-.284.932,2.46,2.46,0,0,1-.332.568,2.424,2.424,0,0,1-.529.48,6.2,6.2,0,0,1-.963.526c-3.956,1.847-8.269,3.478-12.585,2.842a18.314,18.314,0,0,1-5.237-1.762c-1.563-.759-3.33-1.66-4.95-1.029h0a2.494,2.494,0,0,1-.793.247.75.75,0,0,1-.159-.014c-.534-.1-.534-1.9-.656-2.435-.466-2.04-.537-3.694-.816-5.467a17.948,17.948,0,0,0-.685-2.89,34.123,34.123,0,0,1-1.481-10.707c0-.179-1.279,0-1.7-.017-.108,0-.168-.017-.142-.054a.565.565,0,0,1,.085-.1,1.3,1.3,0,0,1,.509-.253l.335-.1c1.756-.5,3.694-.7,5.007-1.941,1.364-1.276,1.7-3.313,1.645-5.177a30.836,30.836,0,0,1-.261-3.262,9.57,9.57,0,0,0,1.5.128,1.552,1.552,0,0,0,1.25-.568,22.442,22.442,0,0,1,1.228,2.842,19.641,19.641,0,0,0,1.56,3.512,5.948,5.948,0,0,0,5.319,2.725,4.94,4.94,0,0,0,4.4-3.836c.327-1.8-.432-4.4-.415-6.277a6.82,6.82,0,0,0,3.41.111,3.1,3.1,0,0,1,.122.355c.639,2.194,1.492,4.711,3.637,5.49,1.387.5,3.026.125,4.308.853a2.765,2.765,0,0,1,.284.188,3.145,3.145,0,0,1,.753.8,6.42,6.42,0,0,1,.912,2.864A15.89,15.89,0,0,1,592.378,332.936Z" transform="translate(-414.063 -248.008)" fill="#0058ff"/>
    <path id="Path_469" data-name="Path 469" d="M603.727,287.651a9.684,9.684,0,0,1-8.7-.878,25.1,25.1,0,0,0-.466-2.736s9.235-5.825,8.951,1.279A7.937,7.937,0,0,0,603.727,287.651Z" transform="translate(-439.805 -225.587)" opacity="0.1"/>
    <ellipse id="Ellipse_65" data-name="Ellipse 65" cx="9.661" cy="9.661" rx="9.661" ry="9.661" transform="translate(150.774 42.821)" fill="#fabdbd"/>
    <path id="Path_470" data-name="Path 470" d="M555.06,340.452s18.755-11.935,77.007.852,92.068,2.557,92.068,2.557v13.355s-65.357,7.1-90.363,0-60.6-11.2-73.069-.2Z" transform="translate(-411.529 -263.958)" fill="#f86d70"/>
    <path id="Path_471" data-name="Path 471" d="M555.06,340.452s18.755-11.935,77.007.852,92.068,2.557,92.068,2.557v13.355s-65.357,7.1-90.363,0-60.6-11.2-73.069-.2Z" transform="translate(-411.529 -263.958)" opacity="0.1"/>
    <path id="Path_472" data-name="Path 472" d="M557.06,342.452s18.186-11.935,76.439.853,91.5,2.557,91.5,2.557l.284,12.219s-64.788,7.1-89.794,0-60.318-12.054-72.785-1.054Z" transform="translate(-412.961 -265.39)" fill="#f86d70"/>
    <path id="Path_473" data-name="Path 473" d="M199.362,369.612s-18.755,11.935-77.007-.852S66.943,366.2,66.943,366.2V352.846s28.7-7.1,53.706,0,60.6,11.2,73.069.2Z" transform="translate(-62.099 -274.193)" fill="#f86d70"/>
    <path id="Path_474" data-name="Path 474" d="M199.362,369.612s-18.755,11.935-77.007-.852S66.943,366.2,66.943,366.2V352.846s28.7-7.1,53.706,0,60.6,11.2,73.069.2Z" transform="translate(-62.099 -274.193)" opacity="0.1"/>
    <path id="Path_475" data-name="Path 475" d="M199.566,370.475s-18.186,11.935-76.439-.852-54.843-2.557-54.843-2.557L68,354.846s28.132-7.1,53.138,0,60.319,12.054,72.785,1.054Z" transform="translate(-62.872 -275.624)" fill="#f86d70"/>
    <path id="Path_476" data-name="Path 476" d="M562.457,235.07c-.284-1.773-.722-4.007.762-5.021a3.154,3.154,0,0,1,1.759-.455c3.072-.031,6.007,2.108,9.019,1.483a5.084,5.084,0,0,0,1.989-9.056,10.213,10.213,0,0,0-4.132-1.5c-3.81-.784-7.789-1.566-11.551-.568s-7.2,4.37-6.9,8.241a11.64,11.64,0,0,0,2.072,5.115c.75,1.2,3.671,6.82,5.089,6.905C562.565,240.332,562.653,236.229,562.457,235.07Z" transform="translate(-410.33 -180.987)" fill="#3f3d56"/>
    <path id="Path_477" data-name="Path 477" d="M598.29,461.7s-19.607,4.831-26.143,0c0,0-2.842,11.082-1.989,16.765,0,0,13.924.852,15.345,1.7,0,0,.284-2.273,1.7-1.137,0,0,4.831-5.683,13.64-.568C600.847,478.465,602.552,465.11,598.29,461.7Z" transform="translate(-422.223 -354.375)" fill="#0058ff"/>
    <path id="Path_478" data-name="Path 478" d="M590.426,227.408a5.639,5.639,0,0,0-.634-.4,5.072,5.072,0,0,1-2.782,8.317c-3.012.625-5.947-1.515-9.019-1.483a3.154,3.154,0,0,0-1.759.455c-1.483,1.014-1.049,3.248-.764,5.021.188,1.159.111,5.263-1.884,5.152h-.034c.548.668,1.06,1.12,1.455,1.137,1.989.111,2.072-3.978,1.884-5.152-.284-1.773-.719-4.007.764-5.021a3.155,3.155,0,0,1,1.759-.455c3.072-.031,6.007,2.108,9.019,1.483a5.084,5.084,0,0,0,1.989-9.056Z" transform="translate(-424.765 -186.374)" opacity="0.1"/>
    <g id="Group_32" data-name="Group 32" transform="translate(0 25.066)" opacity="0.1">
      <path id="Path_479" data-name="Path 479" d="M74.489,174.687s-21.247-8.934-24.031,7.178a3.918,3.918,0,0,0,.568,4.583s.435-1.111,2.489.04a10.686,10.686,0,0,0,2.319.941,5.217,5.217,0,0,0,3.3-.176h0s6.987-.378,12.864-9.519c0,0,2.518-1.557,2.646-2.14l-4.211.284s.321,3.083-1.421,4.933c0,0,1.549-4.782.8-4.919-.151-.028-2.225.247-2.225.247s.537,5.359-2.273,8.133c0,0,2.609-5.453,1.472-8.036l-3.106.6s.852,5.638-2.222,8.92c0,0,2.526-5.8,1.552-8.744l-2.978,1s.719,5.518-1.853,8.241c0,0,2.245-6.993,1.188-7.956a15.563,15.563,0,0,0-3.251,1.7s.426,3.978-1.211,5.4c0,0,1.006-4.831.509-5.03,0,0-3.112,2.341-4.058,4.362a11.8,11.8,0,0,1,3.666-4.831,6.542,6.542,0,0,0-3.694.52s1.077-2.049,4.447-1.077c0,0,2.5-1.728,3-1.7a14.371,14.371,0,0,0-5.493-1.247s2.469-1.421,6.274.955l2.967-1.074s-4.117-2.111-6.183-2.1c0,0,2.745-1.06,6.956,1.9l3.038-.622a24.178,24.178,0,0,0-5.709-2.574s2.759-.435,6.587,2.432l2.08-.176s-2.518-1.48-3.279-1.841-.727-.6-.727-.6a9.917,9.917,0,0,1,4.879,2.347S74.469,174.951,74.489,174.687Z" transform="translate(-49.953 -172.217)" fill="#0058ff"/>
    </g>
    <g id="Group_33" data-name="Group 33" transform="translate(3.113 0)" opacity="0.1">
      <path id="Path_480" data-name="Path 480" d="M81.548,95.527S74.007,78.117,63.183,86.1a3.223,3.223,0,0,0-2.273,3.04s.892-.412,1.455,1.441a8.919,8.919,0,0,0,.852,1.881,4.262,4.262,0,0,0,2.043,1.77h0s4.365,3.757,13.071,1.674c0,0,2.384.511,2.793.236L78.462,93.91a5.731,5.731,0,0,1-3.66,2.114s3.646-1.961,3.279-2.466c-.074-.1-1.461-1.12-1.461-1.12s-2.736,3.489-5.967,3.543c0,0,4.657-1.756,5.453-3.936l-2.185-1.421s-2.711,3.833-6.4,4.032c0,0,4.8-1.989,5.9-4.308l-2.339-1.1s-2.717,3.694-5.788,3.833c0,0,5.317-2.876,5.234-4.049a12.348,12.348,0,0,0-2.907-.83s-2.009,2.6-3.8,2.526c0,0,3.35-2.3,3.166-2.7a13.308,13.308,0,0,0-4.9.284,9.7,9.7,0,0,1,4.93-.779,5.326,5.326,0,0,0-2.484-1.79s1.807-.605,3.256,1.892a12.323,12.323,0,0,1,2.754.691,11.622,11.622,0,0,0-2.557-3.87s2.273.568,3.183,4.14l2.373,1.054s-1.242-3.6-2.489-4.768c0,0,2.236.932,3.055,5.086l2.157,1.361a19.81,19.81,0,0,0-1.924-4.768s1.887,1.31,2.529,5.194l1.336,1.08s-.654-2.313-.9-2.961-.091-.767-.091-.767a8.187,8.187,0,0,1,1.56,4.174S81.395,95.675,81.548,95.527Z" transform="translate(-60.91 -84.006)" fill="#0058ff"/>
    </g>
  </g>
</svg>
