<svg xmlns="http://www.w3.org/2000/svg" width="38" height="38" viewBox="0 0 38 38">
  <g id="Group_96" data-name="Group 96" transform="translate(-994 -4042.453)">
    <g id="iconfinder_discord_3069758" transform="translate(994 4042.453)">
      <circle id="ellipse" cx="19" cy="19" r="19" fill="#8c9eff"/>
      <path id="logo" d="M116.939,141.694a11.727,11.727,0,0,0-5.459-2.094l-.263.511a10.711,10.711,0,0,1,5.181,2.627,17.07,17.07,0,0,0-16.384,0,10.943,10.943,0,0,1,5.181-2.627l-.263-.511a11.657,11.657,0,0,0-5.459,2.094s-2.793,3.886-3.274,11.514a10.534,10.534,0,0,0,7.1,3.137l.894-1.144a10.949,10.949,0,0,1-4.715-3.044,15.891,15.891,0,0,0,17.48,0,10.949,10.949,0,0,1-4.715,3.044l.894,1.144a10.534,10.534,0,0,0,7.1-3.137C119.732,145.58,116.939,141.694,116.939,141.694Zm-12.292,9.42a2.1,2.1,0,1,1,1.915-2.094A2.008,2.008,0,0,1,104.647,151.114Zm7.1,0a2.1,2.1,0,1,1,1.915-2.094A2.008,2.008,0,0,1,111.75,151.114Z" transform="translate(-89.277 -129.058)" fill="#fff"/>
    </g>
  </g>
</svg>
