<svg xmlns="http://www.w3.org/2000/svg" width="588.712" height="115.399" viewBox="0 0 588.712 115.399">
  <g id="Group_38" data-name="Group 38" transform="translate(-7206 2785.708)">
    <g id="g12" transform="translate(7206 -2952.333)">
      <path id="path14" d="M180.142-42.136a58.325,58.325,0,0,1-16.73,4.589A29.256,29.256,0,0,0,176.221-53.67a58.242,58.242,0,0,1-18.5,7.072,29.084,29.084,0,0,0-21.266-9.2,29.13,29.13,0,0,0-29.131,29.131,29.311,29.311,0,0,0,.752,6.639A82.7,82.7,0,0,1,48.03-50.466a28.983,28.983,0,0,0-3.945,14.647A29.124,29.124,0,0,0,57.044-11.571a29.014,29.014,0,0,1-13.192-3.644c-.005.121-.005.242-.005.366A29.15,29.15,0,0,0,67.215,13.717a29.1,29.1,0,0,1-7.675,1.021,28.932,28.932,0,0,1-5.479-.522A29.158,29.158,0,0,0,81.275,34.448a58.455,58.455,0,0,1-36.18,12.47,58.763,58.763,0,0,1-6.949-.407A82.44,82.44,0,0,0,82.8,59.6c53.586,0,82.889-44.393,82.889-82.889q0-1.894-.085-3.772a59.2,59.2,0,0,0,14.538-15.078" transform="translate(408.57 222.422)" fill="#61cceb"/>
      <path id="path16" d="M31.67-33.214C37.109-34.8,43.61-30.868,44.443-25.2c.375,4.462.375,9,.454,13.453,11.26.078,22.6-.375,33.854.153,4.235.68,8.163,4.082,8.7,8.464C89.108,2.384,84.8,8.882,79.208,9.789c-11.49.908-23.051.227-34.616.38.152,4.23-.075,8.464.457,12.621.755,4.008,4.157,7.71,8.312,8.163,8.691.755,17.383,0,26,.677,7.483,1.134,11.186,11.416,6.123,17.007-2.721,4.836-8.77,4.684-13.528,4.684-8.765-.153-17.836,1.06-26.375-1.587C32.651,47.8,22.9,35.031,22.979,21.5c-.454-13.832-.153-27.735-.153-41.564-.907-5.747,2.874-12.245,8.844-13.153" transform="translate(-22.692 209.534)" fill="#61cceb"/>
      <path id="path18" d="M52.479-30.558c4.915-5.289,14.889-3.249,17.383,3.476,1.134,8.011.532,16.175.681,24.26,7.631.078,15.267-.3,22.9.606,5.137,1.212,9.446,6.5,8.39,12.019a9.968,9.968,0,0,1-10.959,9.219c-6.5.376-13,.227-19.5.3.754,3.629.907,8.844,4.914,10.658,7.025,2.795,15.564-.606,22.14,3.55,2.5,3.026,4.309,6.878,3.324,10.806-1.055,5.67-6.873,9.22-12.389,8.766-13.152,1.587-29.253-2.342-34.844-15.8-6.651-16.4-5.966-34.761-6.045-52.143.454-5.215-.755-12.093,4-15.722" transform="translate(155.636 209.599)" fill="#61cceb"/>
      <path id="path20" d="M63.148-32.607c3-1.18,6.383-1.431,9.194.185,2.42,1.514,4.914,3.625,5.368,6.573.829,7.71.453,15.42.528,23.052,7.631.078,15.267-.3,22.9.606A10.9,10.9,0,0,1,109.6,9.142c-.6,4.383-3.249,9.145-8.159,9.752-7.41.606-14.814.3-22.219.3.524,3.48.223,8.237,3.7,10.352,7.784,4.082,18.748-1.583,24.787,6.2,4.388,6.041.908,14.963-5.966,16.851-12.472,2.115-27.434.833-36.2-9.446-6.349-8.312-7.409-19.122-8.691-29.1-.681-10.885-1.74-21.766-.833-32.651-.21-5.867,1.315-11.73,7.129-14.014" transform="translate(205.378 209.575)" fill="#61cceb"/>
      <path id="path22" d="M39.32-29.861c4.836-1.739,9.973,1.814,12.093,5.967,1.056,8.089.148,16.248.6,24.412.454,5.6,5.9,10.732,11.714,9.446a8.731,8.731,0,0,0,7.557-7.33c.606-7.71.074-15.495.379-23.279a11.271,11.271,0,0,1,8.691-9.441c3.324-.908,6.577,1.055,9.224,2.791,6.193,8.993,1.508,20.71,3.476,30.687,1.129,3.324,3.85,6.346,7.553,6.573C106.051,11.1,112.7,6.489,111.493.519c.755-8.089-1.059-16.554,1.435-24.412,1.962-4.684,8.089-8.007,12.921-5.591,3.249,1.361,6.123,4.155,6.5,7.784a155.021,155.021,0,0,1,.3,24.408C131.523,17.748,117.764,30.9,102.575,30.67c-7.557.454-14.513-3.1-20.4-7.33C77.256,26.287,72.419,29.688,66.6,30.3,52.093,32.863,36.747,23.112,32.9,8.909,30.855-.009,31.383-9.307,31.61-18.378c-.379-4.836,2.42-10.8,7.71-11.483" transform="translate(37.375 232.032)" fill="#61cceb"/>
      <path id="path24" d="M97.86-29.639a127.371,127.371,0,0,1,19.345-.454c6.424.227,11.866,7.632,9.219,13.676-1.583,2.8-3.777,5.974-7.257,6.275-6.2.528-12.389.3-18.59.681a8.91,8.91,0,0,0-8.011,7.483c-.6,7.479-.074,15.037-.375,22.594-.306,6.275-7.558,11.792-13.606,9.145-2.8-1.587-5.97-3.855-6.35-7.252a158.131,158.131,0,0,1-.074-26.074c1.06-13.152,12.547-24.862,25.7-26.074" transform="translate(315.974 232.412)" fill="#61cceb"/>
      <path id="path26" d="M54.449-3.723c5.6-1.06,11.413,3.476,12.093,8.992a365.461,365.461,0,0,1,.3,37.483,11.166,11.166,0,0,1-9.22,10.2C51.2,54.617,44.324,48.573,45.23,42c-.305-12.547-.532-25.092.153-37.635C45.911-.174,50.215-3.191,54.449-3.723ZM53.7-33.277C61.4-35.318,68.962-26.7,66.237-19.218c-1.657,7.557-12.389,10.2-17.6,4.762-6.878-5.063-3.4-17.762,5.063-18.822" transform="translate(131.147 209.445)" fill="#61cceb"/>
      <path id="path28" d="M81.062-27.913c12.625-4.082,27.741-3.1,38.32,5.442C126.106-17.033,130.04-8.114,128.448.5c-1.133,3.7-5.364,5.141-8.918,5.293-11.487.677-23.048,0-34.535.45,3.249,6.725,11.866,7.257,18.363,6.123,5.666-1.055,10.506-5.438,16.476-4.382,4.308.379,7.1,5.743,5.211,9.446-2.717,6.424-9.519,9.9-16.021,11.185-11.409,2.948-24.557,2.5-33.929-5.289C63.91,15.77,60.056.049,65.041-12.2A26.787,26.787,0,0,1,81.062-27.913" transform="translate(255.378 232.575)" fill="#61cceb"/>
      <path id="path30" d="M65.718-21.721c.061-.129.128-.256.2-.384h0a11.359,11.359,0,0,1,7.2-5.533A11.95,11.95,0,0,1,85.71-24.621a11.634,11.634,0,0,1,1.46,1.674c.288.388.573.8.841,1.225h-.086l.086.165-12.72-.1q-4.792.03-9.573-.07" transform="translate(274.883 245.881)" fill="#fff"/>
    </g>
  </g>
</svg>
